<?xml version="1.0" encoding="UTF-8"?>
<svg width="18px" height="18px" viewBox="0 0 18 18" version="1.1" xmlns="http://www.w3.org/2000/svg" xmlns:xlink="http://www.w3.org/1999/xlink">
    <title>menu_sql</title>
    <g id="Page-1" stroke="none" stroke-width="1" fill="none" fill-rule="evenodd">
        <g id="menu_sql" transform="translate(1.687300, 1.687900)" fill-rule="nonzero">
            <path d="M0.591196497,0 C0.263672512,0 0,0.265543363 0,0.595413288 L0,14.4047349 C0,14.7345159 0.263672512,15 0.591196497,15 L14.4085961,15 C14.7362979,15 15,14.7345159 15,14.4047349 L15,0.595413288 C15,0.265661883 14.7362979,0 14.4085961,0 L0.591196497,0 L0.591196497,0 Z" id="rect812" stroke-opacity="0.601759691" stroke="#00162A" stroke-width="2" fill-opacity="0" fill="#FFFFFF" stroke-linecap="round" stroke-linejoin="round"></path>
            <path d="M10.6085375,9.02727795 L10.6085375,5.17046325 C10.6085375,4.97635911 10.6602221,4.82733538 10.7641654,4.72367917 C10.8681087,4.61973583 11.0033499,4.56776417 11.1704632,4.56776417 C11.3398737,4.56776417 11.475402,4.61858729 11.5767611,4.72023354 C11.6807044,4.82159265 11.7326761,4.97176493 11.7326761,5.17046325 L11.7326761,8.54316616 L12.9380743,8.54316616 C13.1140888,8.54316616 13.2519142,8.5893951 13.3512634,8.68185299 C13.4506126,8.77230092 13.5,8.90093798 13.5,9.06776417 C13.5,9.23028331 13.4506126,9.3592075 13.3512634,9.45396248 C13.2519142,9.54871746 13.1140888,9.59609495 12.9380743,9.59609495 L11.1704632,9.59609495 C11.0191424,9.59609495 10.8873469,9.54527182 10.7742152,9.44362557 C10.6636677,9.33996937 10.6085375,9.20099541 10.6085375,9.02727795 L10.6085375,9.02727795 Z M9.30149311,9.66385911 L9.00344564,9.40313936 C8.6511294,9.60614472 8.23822741,9.70779096 7.76416539,9.70779096 C7.40294793,9.70779096 7.07216692,9.64691807 6.77210949,9.52488515 C6.47176493,9.40313936 6.21449081,9.22827335 6,9.00028714 C5.78780628,8.77230092 5.62413859,8.49665008 5.50899694,8.17390888 C5.39385528,7.8488706 5.33642802,7.49109877 5.33642802,7.10059342 C5.33642802,6.71008806 5.39385528,6.35346478 5.50899694,6.03043645 C5.62643568,5.70539816 5.79125191,5.43003446 6.00344564,5.20434533 C6.21563936,4.9786562 6.47176493,4.80493874 6.77210949,4.68290582 C7.07216692,4.56087289 7.40294793,4.5 7.76416539,4.5 C8.12538285,4.5 8.45587672,4.56087289 8.75622129,4.68290582 C9.05886294,4.80493874 9.31498851,4.9786562 9.52488515,5.20434533 C9.73707887,5.43003446 9.90074655,5.70539816 10.0158882,6.03043645 C10.133327,6.35346478 10.1919028,6.71008806 10.1919028,7.10059342 C10.1919028,7.74176876 10.0440276,8.28014931 9.74827718,8.71573507 L10.0158882,8.95262251 C10.1580207,9.07006126 10.2539242,9.16941041 10.3035988,9.25066998 C10.3532734,9.32963247 10.3782542,9.41433767 10.3782542,9.5047856 C10.3782542,9.64232389 10.3328867,9.75746554 10.2427259,9.85021057 C10.1525651,9.94496554 10.042879,9.99234303 9.91424196,9.99234303 C9.84877489,9.99234303 9.78790199,9.98315467 9.73133614,9.96506508 C9.67735452,9.94726263 9.61849158,9.91567764 9.55532159,9.87031011 C9.49215161,9.82522971 9.4074464,9.756317 9.30149311,9.66385911 Z M7.76416539,5.54632466 C7.49109877,5.54632466 7.26196401,5.618683 7.0767611,5.76311256 C6.89155819,5.90754211 6.756317,6.09934916 6.67046325,6.33882083 C6.58460949,6.57570827 6.54182619,6.82982389 6.54182619,7.10059342 C6.54182619,7.37366003 6.58460949,7.6297856 6.67046325,7.86925727 C6.756317,8.10844181 6.89155819,8.30024885 7.0767611,8.44496554 C7.26196401,8.5893951 7.49109877,8.66146631 7.76416539,8.66146631 C7.89050536,8.66146631 8.00334992,8.64452527 8.10269908,8.61064319 L8.08920368,8.60403905 C7.94477412,8.47540199 7.8488706,8.3726072 7.80149311,8.29594181 C7.75382848,8.21898928 7.73028331,8.13658116 7.73028331,8.04871746 C7.73028331,7.90859495 7.77421516,7.79345329 7.862366,7.7032925 C7.9525268,7.61083461 8.06336141,7.56431853 8.19400842,7.56431853 C8.29134763,7.56431853 8.38035988,7.58585375 8.46161945,7.6289242 C8.54517611,7.6717075 8.65916922,7.7587098 8.80359877,7.88964395 L8.83748086,7.91663476 C8.93453292,7.67285605 8.98305896,7.40093798 8.98305896,7.10059342 C8.98305896,6.82063553 8.94027565,6.56336141 8.8544219,6.32848392 C8.76856815,6.09389357 8.63332695,5.90524502 8.44812404,5.76311256 C8.26521822,5.618683 8.03723201,5.54632466 7.76416539,5.54632466 L7.76416539,5.54632466 Z M1.5,8.88830398 C1.5,8.72377489 1.5474062,8.58250383 1.64221861,8.46506508 C1.73703101,8.34561639 1.86566807,8.2856049 2.02818721,8.2856049 C2.10284265,8.2856049 2.2211428,8.31718989 2.38366194,8.38064701 C2.54618109,8.44151991 2.6863036,8.49004594 2.80374234,8.52622511 C2.92319104,8.5601072 3.06876914,8.5767611 3.24047665,8.5767611 C3.4457791,8.5767611 3.59595138,8.5316807 3.69070636,8.44151991 C3.78775842,8.35107198 3.83628446,8.23937596 3.83628446,8.10614472 C3.83628446,8.01368683 3.81159074,7.93702144 3.76191616,7.87586141 C3.71224158,7.81269142 3.64447741,7.75985835 3.55862366,7.7167879 C3.47305704,7.6717075 3.34872703,7.62318147 3.18620789,7.5712098 C3.02368874,7.51923813 2.88500191,7.47530628 2.76986026,7.43912711 C2.53498277,7.36475881 2.33398737,7.28120214 2.16716118,7.18874426 C2.00004786,7.09370214 1.86107389,6.95846095 1.75058384,6.78215926 C1.63995023,6.60384763 1.58464778,6.37471286 1.58464778,6.09504211 C1.58464778,5.74502297 1.66478752,5.45042113 1.82518185,5.2112366 C1.987701,4.97176493 2.20305322,4.79345329 2.47181279,4.67601455 C2.74057236,4.55886294 3.0360356,4.5 3.35906394,4.5 C3.80154096,4.5 4.14553025,4.56891271 4.39160605,4.70673813 C4.63768185,4.84427642 4.76086332,5.02488515 4.76086332,5.24827718 C4.76086332,5.39959801 4.71348583,5.52708652 4.61844372,5.63102986 C4.52598583,5.73267611 4.40625,5.78349923 4.25952335,5.78349923 C4.15816424,5.78349923 4.01804173,5.7507657 3.83973009,5.68529862 C3.66141845,5.61983155 3.48310681,5.58709801 3.30479518,5.58709801 C3.15117726,5.58709801 3.02713438,5.62528714 2.9323794,5.70223966 C2.83762443,5.77890505 2.7899598,5.87710567 2.7899598,5.9968415 C2.7899598,6.06661562 2.80690084,6.12318147 2.84078292,6.16596478 C2.8769621,6.20673813 2.94013208,6.24837289 3.03058002,6.2911562 C3.1230379,6.33422665 3.26201187,6.38619832 3.44692764,6.44707121 C3.63442764,6.5079441 3.76651034,6.55216309 3.84317573,6.57915391 C4.2155915,6.70089969 4.50904479,6.86801302 4.7235356,7.08020674 C4.93802642,7.29010337 5.04512825,7.61083461 5.04512825,8.04182619 C5.04512825,8.58824655 4.86911371,9.00229709 4.51708461,9.28455207 C4.16476838,9.56680704 3.71224158,9.70779096 3.15921708,9.70779096 C2.91314127,9.70779096 2.66247129,9.67735452 2.40749426,9.61648162 C2.15452718,9.55560873 1.94032351,9.46171516 1.76402182,9.33537519 C1.58803599,9.20903522 1.5,9.06001149 1.5,8.88830398 L1.5,8.88830398 Z" id="path839" fill-opacity="0.6" fill="#00162A"></path>
        </g>
    </g>
</svg>